<svg preserveAspectRatio="none" width="100%" height="100%" overflow="visible" style="display: block;" viewBox="0 0 15 16.6667" fill="none" xmlns="http://www.w3.org/2000/svg">
<path id="Vector" fill-rule="evenodd" clip-rule="evenodd" d="M5.73226 0.732233C6.2011 0.263392 6.83698 0 7.50002 0C8.16307 0 8.79895 0.263392 9.26779 0.732233C9.67027 1.13471 9.92134 1.66028 9.98436 2.22046C10.8933 2.6485 11.6795 3.30561 12.2632 4.1314C12.9596 5.11663 13.3335 6.2935 13.3334 7.5C13.3334 7.50003 13.3334 7.49997 13.3334 7.5V10.1317C13.3333 10.2446 13.3556 10.3566 13.3988 10.4609C13.442 10.5653 13.5053 10.6601 13.5851 10.7399C13.5851 10.7399 13.5851 10.7399 13.5851 10.7399L14.7559 11.9107C14.9943 12.1491 15.0656 12.5075 14.9366 12.8189C14.8076 13.1303 14.5037 13.3333 14.1667 13.3333H10.8334C10.8334 14.2174 10.4822 15.0652 9.85705 15.6904C9.23193 16.3155 8.38408 16.6667 7.50002 16.6667C6.61597 16.6667 5.76812 16.3155 5.143 15.6904C4.51788 15.0652 4.16669 14.2174 4.16669 13.3333H0.833358C0.496306 13.3333 0.192442 13.1303 0.063458 12.8189C-0.0655261 12.5075 0.00577037 12.1491 0.244102 11.9107L1.41494 10.7399C1.57617 10.5787 1.66669 10.3598 1.66669 10.1325V7.5C1.66669 5.16606 3.03762 3.15349 5.01567 2.22063C5.07866 1.66039 5.32974 1.13475 5.73226 0.732233ZM12.1862 11.6667C12.0532 11.4927 11.943 11.3018 11.8589 11.0985C11.732 10.792 11.6667 10.4634 11.6667 10.1317C11.6667 10.1316 11.6667 10.1317 11.6667 10.1317V7.5C11.6668 6.63809 11.3997 5.79724 10.9022 5.09341C10.4047 4.38958 9.70128 3.85727 8.88873 3.56978C8.55587 3.452 8.33336 3.13725 8.33336 2.78417V2.5C8.33336 2.27899 8.24556 2.06702 8.08928 1.91074C7.933 1.75446 7.72104 1.66667 7.50002 1.66667C7.27901 1.66667 7.06705 1.75446 6.91077 1.91074C6.75449 2.06702 6.66669 2.27899 6.66669 2.5V2.78417C6.66669 3.13729 6.44412 3.45208 6.1112 3.56982C4.49192 4.14247 3.33336 5.68751 3.33336 7.5V10.1325C3.33336 10.6897 3.14894 11.2285 2.81386 11.6667H12.1862ZM5.83336 13.3333C5.83336 13.7754 6.00895 14.1993 6.32151 14.5118C6.63407 14.8244 7.058 15 7.50002 15C7.94205 15 8.36598 14.8244 8.67854 14.5118C8.9911 14.1993 9.16669 13.7754 9.16669 13.3333H5.83336Z" fill="var(--fill-0, #8C52FF)"/>
</svg>
