<svg preserveAspectRatio="none" width="100%" height="100%" overflow="visible" style="display: block;" viewBox="0 0 20 20" fill="none" xmlns="http://www.w3.org/2000/svg">
<g id="Group">
<path id="Vector" d="M18.6666 4H16.6666V3C16.6666 2.64635 16.5261 2.30723 16.2761 2.05717C16.0261 1.80717 15.6869 1.66667 15.3333 1.66667H8.21997C7.9548 1.66621 7.7005 1.5612 7.51228 1.37435L6.62563 0.4877C6.31215 0.176233 5.88852 0.00105 5.44667 0H1.33333C0.979683 0 0.640567 0.140495 0.3905 0.3905C0.1405 0.640567 0 0.9797 0 1.33333V14.6667C0.000520833 15.1969 0.2114 15.7053 0.5864 16.0803C0.961333 16.4553 1.46973 16.6661 2 16.6667H6.62233L6.50964 16.8553C6.43998 16.9717 6.40755 17.1067 6.4166 17.2421C6.42565 17.3775 6.47578 17.5069 6.56035 17.613C6.80717 17.916 7.08432 18.193 7.3873 18.4397C7.49323 18.5245 7.62252 18.5748 7.75794 18.5838C7.89329 18.5928 8.02819 18.5601 8.14434 18.49L9.02969 17.962C9.41634 18.1833 9.82935 18.355 10.259 18.473L10.5107 19.4706C10.5438 19.6023 10.6163 19.7208 10.7185 19.8101C10.8207 19.8995 10.9477 19.9555 11.0827 19.9706C11.2767 19.9903 11.4716 20.0001 11.6667 20C11.8619 20 12.0571 19.99 12.2513 19.97C12.3862 19.9547 12.513 19.8986 12.6151 19.8092C12.7172 19.7199 12.7897 19.6015 12.8227 19.47L13.0744 18.4726C13.5041 18.3548 13.9171 18.1831 14.3037 17.9616L15.1887 18.4896C15.3051 18.5593 15.4401 18.5918 15.5754 18.5827C15.7108 18.5737 15.8403 18.5236 15.9464 18.439C16.2496 18.1926 16.5267 17.9156 16.773 17.6123C16.8577 17.5063 16.9079 17.3769 16.917 17.2415C16.926 17.1062 16.8933 16.9713 16.8233 16.855L16.7107 16.6667H18C18.5303 16.6661 19.0387 16.4553 19.4136 16.0803C19.7886 15.7053 19.9995 15.1969 20 14.6667V5.33333C20 4.97968 19.8595 4.64056 19.6095 4.39049C19.3595 4.14049 19.0203 3.99999 18.6667 3.99999L18.6666 4ZM3.3333 14.6667C3.3333 15.143 3.0792 15.5832 2.66663 15.8214C2.25407 16.0596 1.74587 16.0596 1.3333 15.8214C0.920733 15.5832 0.666633 15.143 0.666633 14.6667V1.33333C0.666633 1.15652 0.73688 0.986983 0.861883 0.861917C0.986948 0.736917 1.15648 0.666667 1.3333 0.666667H5.44663C5.7118 0.667122 5.9661 0.772135 6.15432 0.958983L7.04097 1.84563C7.35445 2.1571 7.77808 2.33228 8.21993 2.33333H15.3333C15.5101 2.33333 15.6796 2.40358 15.8047 2.52858C15.9297 2.65365 15.9999 2.82318 15.9999 3V4H4.6666C4.31295 4 3.97383 4.1405 3.72377 4.3905C3.47377 4.64057 3.33327 4.9797 3.33327 5.33333L3.3333 14.6667ZM15.9096 17.576C15.7893 17.6964 15.6628 17.8104 15.5307 17.9177L14.4747 17.2873C14.4221 17.256 14.3618 17.2396 14.3005 17.2402C14.2393 17.2408 14.1793 17.2583 14.1273 17.2907C13.695 17.5612 13.221 17.7585 12.7243 17.8744C12.6647 17.8883 12.6101 17.9183 12.5664 17.9611C12.5227 18.0039 12.4917 18.058 12.4767 18.1174L12.183 19.307V19.3071C11.842 19.342 11.4983 19.342 11.1574 19.3071L10.8574 18.1174V18.1174C10.8423 18.058 10.8113 18.0039 10.7676 17.9611C10.7239 17.9183 10.6693 17.8883 10.6096 17.8744C10.1132 17.7584 9.63925 17.5612 9.20704 17.2907C9.15502 17.2583 9.09506 17.2408 9.03379 17.2402C8.97252 17.2396 8.9123 17.256 8.85964 17.2873L7.80834 17.9227C7.67461 17.8136 7.54642 17.6978 7.42435 17.5757C7.30398 17.4557 7.19004 17.3294 7.08302 17.1974L7.71335 16.1411C7.74473 16.0884 7.76095 16.0282 7.76029 15.9668C7.75971 15.9056 7.74213 15.8457 7.70964 15.7937C7.43939 15.3614 7.24233 14.8875 7.12631 14.3911C7.11251 14.3314 7.08249 14.2768 7.03959 14.2331C6.99675 14.1894 6.94265 14.1584 6.88334 14.1434L5.69369 13.8494C5.67572 13.678 5.66674 13.5057 5.66667 13.3334C5.66635 13.1632 5.67507 12.9933 5.69265 12.824L6.88262 12.524H6.88268C6.94199 12.509 6.99609 12.478 7.03893 12.4343C7.08177 12.3906 7.11178 12.336 7.12565 12.2763C7.24166 11.7799 7.43873 11.306 7.70898 10.8737C7.74147 10.8217 7.75898 10.7618 7.75963 10.7005C7.76029 10.6393 7.74401 10.579 7.71269 10.5263L7.07766 9.47502C7.18632 9.34123 7.30174 9.21317 7.42369 9.09136C7.5442 8.97117 7.67069 8.85711 7.80266 8.74969L8.85898 9.38002C8.91158 9.4114 8.97187 9.42774 9.03313 9.42716C9.09439 9.42657 9.15435 9.40912 9.20631 9.3767C9.63854 9.1062 10.1125 8.909 10.609 8.79299C10.6686 8.77918 10.7232 8.74917 10.7669 8.70627C10.8106 8.66343 10.8417 8.60933 10.8566 8.55002L11.1503 7.36037C11.4913 7.32534 11.835 7.32534 12.176 7.36037L12.476 8.55002C12.491 8.60933 12.522 8.66343 12.5657 8.70627C12.6094 8.74917 12.6641 8.77918 12.7237 8.79299C13.2202 8.90907 13.6943 9.10627 14.1267 9.3767C14.1786 9.40912 14.2386 9.42657 14.2999 9.42716C14.3611 9.42774 14.4214 9.4114 14.474 9.38002L15.525 8.74467C15.6583 8.85235 15.786 8.96869 15.9087 9.09102C16.029 9.2114 16.143 9.33789 16.2503 9.46999L15.62 10.526C15.5886 10.5786 15.5723 10.6389 15.5729 10.7001C15.5735 10.7614 15.5909 10.8213 15.6233 10.8733C15.8939 11.3056 16.0911 11.7797 16.207 12.2763C16.2208 12.3359 16.2509 12.3906 16.2938 12.4342C16.3366 12.478 16.3907 12.509 16.45 12.524L17.6397 12.8177V12.8176C17.6575 12.989 17.6665 13.1611 17.6667 13.3333C17.6667 13.506 17.658 13.6794 17.6434 13.8413H17.6401L16.4507 14.1413H16.4507C16.3914 14.1563 16.3373 14.1874 16.2944 14.231C16.2516 14.2747 16.2216 14.3293 16.2077 14.389C16.0918 14.8856 15.8946 15.3597 15.624 15.792C15.5916 15.844 15.5741 15.9039 15.5735 15.9652C15.5729 16.0265 15.5893 16.0867 15.6207 16.1393L16.256 17.1903V17.1904C16.1471 17.3246 16.0315 17.4533 15.9096 17.576L15.9096 17.576ZM19.3333 14.6667C19.3333 15.0203 19.1928 15.3594 18.9428 15.6095C18.6927 15.8595 18.3536 16 18 16H16.313L16.2953 15.9703H16.2953C16.5167 15.5837 16.6884 15.1707 16.8063 14.741L17.8036 14.4893C17.9353 14.4562 18.0537 14.3837 18.143 14.2815C18.2324 14.1793 18.2884 14.0523 18.3036 13.9173C18.3234 13.7233 18.3333 13.5284 18.3333 13.3333C18.3333 13.1381 18.3233 12.9429 18.3033 12.7487C18.288 12.6139 18.2319 12.487 18.1425 12.3849C18.0532 12.2828 17.9348 12.2103 17.8033 12.1773L16.8059 11.9256C16.6881 11.4959 16.5164 11.0829 16.2949 10.6963L16.8229 9.8113C16.893 9.69496 16.9257 9.56 16.9166 9.42451C16.9076 9.28903 16.8572 9.1596 16.7723 9.05361C16.5263 8.7503 16.2493 8.47335 15.946 8.22731C15.8401 8.14209 15.7107 8.09151 15.5751 8.08246C15.4395 8.07341 15.3045 8.10629 15.1883 8.17666L14.3033 8.70466C13.9167 8.48318 13.5036 8.3115 13.074 8.19366L12.8223 7.19601C12.7892 7.06431 12.7167 6.94588 12.6145 6.85656C12.5122 6.76717 12.3852 6.71118 12.2503 6.69602C11.8617 6.65663 11.4702 6.65663 11.0816 6.69602C10.9468 6.71131 10.8199 6.76737 10.7178 6.85669C10.6157 6.94608 10.5433 7.06444 10.5103 7.19601L10.2586 8.19334C9.82897 8.31131 9.41593 8.48299 9.02928 8.70434L8.14458 8.17668C8.02824 8.10669 7.89328 8.07401 7.7578 8.08306C7.62232 8.09211 7.49288 8.14243 7.3869 8.22733C7.08377 8.47368 6.80675 8.75058 6.56027 9.05363C6.4757 9.15975 6.42557 9.28918 6.41652 9.42459C6.40747 9.55994 6.43989 9.69491 6.50955 9.81131L7.03787 10.6967H7.03793C6.81652 11.0832 6.64483 11.4961 6.52693 11.9256L5.52895 12.1776H5.52888C5.39731 12.2107 5.27895 12.2831 5.18963 12.3852C5.10031 12.4873 5.04426 12.6142 5.02889 12.749C4.98937 13.1375 4.98937 13.5291 5.02889 13.9176C5.04419 14.0525 5.10018 14.1795 5.18957 14.2816C5.27889 14.3838 5.39732 14.4562 5.52889 14.4893L6.52622 14.741C6.64419 15.1705 6.81587 15.5834 7.03722 15.97L7.01958 16H3.49291C3.82006 15.633 4.00059 15.1583 3.99994 14.6666V5.33331C3.99994 5.15649 4.07019 4.98696 4.19519 4.86189C4.32026 4.73689 4.48979 4.66664 4.66661 4.66664H18.6666C18.8434 4.66664 19.013 4.73689 19.138 4.86189C19.263 4.98695 19.3333 5.15649 19.3333 5.33331L19.3333 14.6667Z" fill="var(--fill-0, black)"/>
<path id="Vector_2" d="M11.6666 9.33333C10.6058 9.33333 9.5883 9.75475 8.83813 10.5049C8.088 11.2551 7.66658 12.2724 7.66658 13.3334C7.66658 14.3944 8.088 15.4117 8.83813 16.1619C9.58833 16.912 10.6056 17.3334 11.6666 17.3334C12.7276 17.3334 13.745 16.912 14.4951 16.1619C15.2453 15.4117 15.6667 14.3944 15.6667 13.3334C15.6655 12.2729 15.2438 11.2561 14.4938 10.5062C13.744 9.75628 12.7272 9.33453 11.6667 9.33337L11.6666 9.33333ZM11.6666 16.6667C10.7826 16.6667 9.9348 16.3155 9.30963 15.6904C8.68447 15.0652 8.33333 14.2174 8.33333 13.3334C8.33333 12.4494 8.6845 11.6015 9.30963 10.9764C9.93477 10.3512 10.7826 10.0001 11.6666 10.0001C12.5507 10.0001 13.3985 10.3512 14.0236 10.9764C14.6488 11.6015 14.9999 12.4494 14.9999 13.3334C14.999 14.2172 14.6475 15.0644 14.0225 15.6894C13.3977 16.3143 12.5504 16.6658 11.6665 16.6668L11.6666 16.6667Z" fill="var(--fill-0, black)"/>
<path id="Vector_3" d="M11.6666 11C11.0478 11 10.4543 11.2458 10.0167 11.6834C9.57913 12.121 9.3333 12.7145 9.3333 13.3333C9.3333 13.9522 9.57913 14.5456 10.0167 14.9833C10.4543 15.4208 11.0478 15.6667 11.6666 15.6667C12.2855 15.6667 12.8789 15.4208 13.3166 14.9833C13.7541 14.5456 14 13.9522 14 13.3333C13.9992 12.7147 13.7531 12.1217 13.3157 11.6843C12.8783 11.2469 12.2853 11.0008 11.6666 11ZM11.6666 15C11.2246 15 10.8007 14.8244 10.4881 14.5119C10.1756 14.1993 9.99997 13.7754 9.99997 13.3333C9.99997 12.8913 10.1756 12.4674 10.4881 12.1548C10.8007 11.8423 11.2246 11.6667 11.6666 11.6667C12.1087 11.6667 12.5326 11.8423 12.8452 12.1548C13.1577 12.4674 13.3333 12.8913 13.3333 13.3333C13.3328 13.7752 13.157 14.1988 12.8446 14.5113C12.5321 14.8237 12.1085 14.9995 11.6666 15Z" fill="var(--fill-0, black)"/>
<path id="Vector_4" d="M11.6666 12.3333C11.4014 12.3333 11.147 12.4387 10.9595 12.6262C10.772 12.8137 10.6666 13.0681 10.6666 13.3333C10.6666 13.4524 10.7302 13.5624 10.8333 13.622C10.9364 13.6816 11.0635 13.6816 11.1666 13.622C11.2698 13.5624 11.3333 13.4524 11.3333 13.3333C11.3333 13.2449 11.3684 13.1602 11.431 13.0977C11.4935 13.0351 11.5782 13 11.6666 13C11.7857 13 11.8957 12.9365 11.9553 12.8333C12.0149 12.7302 12.0149 12.6031 11.9553 12.5C11.8957 12.3969 11.7857 12.3333 11.6666 12.3333Z" fill="var(--fill-0, black)"/>
</g>
</svg>
