<svg preserveAspectRatio="none" width="100%" height="100%" overflow="visible" style="display: block;" viewBox="0 0 20 20" fill="none" xmlns="http://www.w3.org/2000/svg">
<g id="noun-users-101408 1">
<path id="Vector" d="M15.64 11.64C16.22 11.16 16.6 10.4 16.6 9.6C16.6 8.21998 15.4801 7 14.2 7C12.92 7 11.8 8.21998 11.8 9.6C11.8 10.4 12.1801 11.16 12.7601 11.64C12.5 11.74 12.2601 11.84 12.0201 11.98C11.2601 11.08 10.2601 10.38 9.1001 10.04C9.98005 9.41998 10.6 8.35997 10.6 7.19997C10.6 5.37997 9.10003 3.79997 7.40003 3.79997C5.70003 3.79997 4.20003 5.37998 4.20003 7.19997C4.20003 8.36 4.82002 9.41997 5.70003 10.04C3.22003 10.78 1.40003 13.08 1.40003 15.8C1.40003 16.0199 1.58005 16.2 1.80003 16.2H18.2C18.42 16.2 18.6 16.0199 18.6 15.8C18.6 13.88 17.3601 12.24 15.64 11.64L15.64 11.64ZM12.6 9.6C12.6 8.76003 13.3 7.8 14.2 7.8C15.1 7.8 15.8 8.76003 15.8 9.6C15.8 10.44 15.1 11.4 14.2 11.4C13.3 11.4 12.6 10.44 12.6 9.6ZM5 7.2C5 5.98002 6.01998 4.6 7.4 4.6C8.78002 4.6 9.8 5.98002 9.8 7.2C9.8 8.41998 8.78002 9.8 7.4 9.8C6.01998 9.8 5 8.41998 5 7.2ZM2.22 15.4C2.42 12.72 4.68 10.6 7.4 10.6C10.12 10.6 12.38 12.72 12.58 15.4H2.22ZM13.38 15.4C13.32 14.4 13 13.44 12.48 12.64C13 12.36 13.58 12.2 14.2 12.2C16.04 12.2 17.58 13.6 17.78 15.4L13.38 15.4Z" fill="var(--fill-0, black)"/>
</g>
</svg>
