<svg width="48" height="9" viewBox="0 0 48 9" fill="none" xmlns="http://www.w3.org/2000/svg">
<mask id="mask0_8803_25275" style="mask-type:luminance" maskUnits="userSpaceOnUse" x="0" y="0" width="10" height="9">
<path d="M0 0H10V8.62233H0V0Z" fill="white"/>
</mask>
<g mask="url(#mask0_8803_25275)">
<path d="M9.86367 7.11668C9.988 6.34483 9.83571 5.82363 9.74552 5.20815C9.71546 5.00366 9.69134 4.78716 9.68738 4.54864C9.6854 4.45647 9.68936 4.35824 9.69344 4.25791C9.69542 4.22389 9.69542 4.19383 9.69938 4.1577C9.69938 4.10364 9.6974 4.04945 9.6974 3.99935L9.531 4.14966L9.68132 3.37386C9.65929 2.67426 9.62329 2.05878 9.69344 1.29708C9.68132 1.28904 9.6734 1.28496 9.66536 1.269C9.65534 1.25291 9.64729 1.23893 9.64123 1.22087C9.62329 1.18475 9.61117 1.14862 9.59719 1.10656C9.57517 1.02441 9.55513 0.928166 9.54313 0.823875C9.52098 0.631501 9.51702 0.400899 9.519 0.138256C9.52098 0.112276 9.52098 0.0841928 9.52098 0.0561099C9.47694 0.0561099 9.42882 0.0541305 9.3828 0.0541305C9.1663 0.0480685 8.9399 0.0400272 8.70138 0.0321095C8.4469 0.0220887 8.18636 0.0140473 7.93386 0.00600598C7.55307 -0.00599421 7.19233 0.00600598 6.92783 0.0781309C6.35268 0.124276 6.04204 0.26865 6.47899 0.330754C6.38683 0.330754 6.31062 0.330754 6.24245 0.326795C5.77358 0.310712 5.79758 0.214463 5.37881 0.236484C5.33267 0.238587 5.28256 0.242546 5.2264 0.248608L5.37077 0.168318L5.44896 0.124276C5.42087 0.118214 5.39081 0.114255 5.36075 0.110296C5.34665 0.106214 5.33465 0.104234 5.32067 0.102255C4.79959 0.226463 3.79157 0.374919 2.9278 0.252567C2.83563 0.236484 2.74149 0.226463 2.64524 0.216442C2.53501 0.216442 2.41489 0.210504 2.28659 0.196401C2.67134 0.260608 2.40078 0.270629 2.22041 0.30465C2.22041 0.322712 2.18032 0.334712 2.11822 0.348816C2.1202 0.342754 2.1202 0.336816 2.1202 0.330754C2.14432 0.320733 2.18032 0.310712 2.22041 0.30465C2.11822 0.302671 1.33462 0.254546 1.23849 0.260608C1.17033 0.264567 1.10018 0.26865 1.03202 0.272608C0.959892 0.27867 0.887767 0.282629 0.817622 0.288691C0.539019 0.310712 0.312624 0.336816 0.0862282 0.332733C0.0781869 0.485148 0.0581453 0.603418 0 0.699667L0.0640835 1.00833C0.0741043 1.07044 0.0821457 1.1266 0.0862282 1.18277C0.0921665 1.23893 0.096249 1.29102 0.096249 1.33506C0.0982284 1.42735 0.0901871 1.51754 0.0801663 1.60772C0.0601247 1.78414 0.0240004 1.95857 0.0100208 2.14501L0.0901871 2.19709C0.13225 2.44168 0.124208 2.89471 0.0520833 3.10923C0.0320418 3.40392 0.0601247 3.73473 0.104167 4.07148C0.148332 4.3742 0.240499 4.95566 0.278603 5.23426C0.196333 5.89984 0.422852 5.60911 0.474936 6.2085C0.424832 6.58941 0.539019 7.25301 0.426811 7.48349C0.412832 6.95227 0.198436 6.88014 0.242478 6.32083C0.170353 6.53535 0.164291 5.37653 0.0601247 5.87571C0.202395 6.71968 0.13027 7.71001 0.180374 8.62017H0.336624C0.567102 8.60619 0.78558 8.59011 0.973996 8.56004C0.957913 8.58405 0.965954 8.60211 0.994037 8.62017H3.6733L4.21442 8.51798H5.37881L5.45292 8.62017H8.72946C8.83771 8.59815 9.13834 8.57402 9.30857 8.55398C9.30857 8.552 9.31067 8.55002 9.31067 8.54607C9.29657 8.54396 9.28655 8.53394 9.27653 8.51996C9.32465 8.52392 9.3708 8.52998 9.41682 8.53604C9.61525 8.41171 9.81159 8.16107 9.99802 7.85438C9.96994 7.58172 9.9259 7.3312 9.86367 7.11668ZM1.05614 4.07952C1.05812 4.05552 1.05614 4.03139 1.05614 4.01135C1.05812 4.03337 1.05812 4.0575 1.0601 4.07952C1.05614 4.07952 1.05614 4.07952 1.05614 4.07952Z" fill="#8C52FF"/>
</g>
<mask id="mask1_8803_25275" style="mask-type:luminance" maskUnits="userSpaceOnUse" x="0" y="3" width="10" height="5">
<path d="M0.869141 3.92969H9.1322V7.87268H0.869141V3.92969Z" fill="white"/>
</mask>
<g mask="url(#mask1_8803_25275)">
<path fill-rule="evenodd" clip-rule="evenodd" d="M4.99807 5.58732C6.32873 5.58732 7.42557 6.58643 7.57823 7.87466H2.41802C2.57081 6.58643 3.66765 5.58732 4.99807 5.58732ZM9.11092 7.08228C9.12651 7.14054 8.82242 7.27267 8.43161 7.37708C8.0408 7.48175 7.71123 7.51948 7.69564 7.46109C7.67993 7.40306 7.98414 7.27094 8.37495 7.16628C8.76588 7.06162 9.09533 7.02401 9.11092 7.08228ZM0.885339 7.0824C0.901051 7.02401 1.2305 7.06174 1.62131 7.16615C2.01224 7.27094 2.31633 7.40306 2.30062 7.46133C2.28503 7.51948 1.95558 7.48175 1.56477 7.37708C1.17384 7.27267 0.869751 7.14067 0.885339 7.0824ZM1.31079 6.05644C1.34098 6.00424 1.64939 6.12585 1.99987 6.32787C2.35023 6.5299 2.6099 6.73613 2.57972 6.78846C2.54953 6.84054 2.24099 6.71918 1.89051 6.51703C1.54015 6.31501 1.28048 6.10878 1.31079 6.05644ZM8.68559 6.05644C8.71578 6.10865 8.45623 6.31501 8.10575 6.51703C7.75539 6.71918 7.44685 6.84054 7.41654 6.78833C7.38648 6.736 7.64603 6.5299 7.99651 6.32787C8.34687 6.12572 8.65528 6.00411 8.68559 6.05644ZM8.00888 5.1756C8.05156 5.21816 7.85424 5.48452 7.56821 5.7703C7.28219 6.05607 7.01559 6.25327 6.97278 6.21059C6.9301 6.16791 7.12742 5.90168 7.41357 5.61578C7.6996 5.33 7.9662 5.1328 8.00888 5.1756ZM7.12705 4.49951C7.17938 4.5297 7.05777 4.83799 6.8555 5.1881C6.65311 5.53809 6.44675 5.79739 6.39442 5.7672C6.34209 5.73714 6.4637 5.42897 6.6661 5.07886C6.86837 4.72875 7.07472 4.46933 7.12705 4.49951ZM6.10011 4.07468C6.1585 4.09027 6.12089 4.41947 6.01623 4.80991C5.91144 5.20035 5.77919 5.50419 5.7208 5.4886C5.66266 5.47289 5.70014 5.14381 5.80493 4.75337C5.90959 4.36293 6.04184 4.05909 6.10011 4.07468ZM1.98738 5.1756C2.03006 5.13292 2.29666 5.33 2.58269 5.61578C2.86884 5.90168 3.06616 6.16803 3.02348 6.21059C2.9808 6.25327 2.71419 6.05607 2.42805 5.7703C2.14202 5.48452 1.9447 5.21816 1.98738 5.1756ZM2.86921 4.49964C2.92154 4.46945 3.12789 4.72875 3.33016 5.07886C3.53256 5.42897 3.65417 5.73714 3.60184 5.7672C3.54951 5.79739 3.34315 5.53809 3.14088 5.1881C2.93849 4.83799 2.81688 4.5297 2.86921 4.49964ZM3.89603 4.07468C3.95442 4.05909 4.08667 4.36293 4.19133 4.75337C4.29612 5.14381 4.3336 5.47289 4.27533 5.4886C4.21706 5.50419 4.08481 5.20035 3.98003 4.80991C3.87537 4.41947 3.83776 4.09027 3.89603 4.07468ZM4.99807 3.92969C5.05856 3.92969 5.10755 4.2574 5.10755 4.66158C5.10755 5.06587 5.05856 5.39359 4.99807 5.39359C4.93782 5.39359 4.88883 5.06587 4.88883 4.66158C4.88883 4.2574 4.93782 3.92969 4.99807 3.92969Z" fill="#FFEB4F"/>
</g>
<path d="M13 6.08347C13.4934 7.82774 14.489 8.4005 15.6431 8.4005C16.6561 8.4005 17.5107 7.84544 17.5107 6.7002C17.5107 5.6783 16.7532 5.14952 15.3613 4.03941C14.3657 3.26421 13.7755 2.92956 13.7755 2.16294C13.7755 1.52878 14.2512 1.10565 15.0441 1.10565C16.163 1.10565 16.6299 1.95164 16.7355 2.74454L17.2466 2.5858C16.7444 1.56391 16.0483 1 15.0618 1C14.1013 1 13.4583 1.48454 13.4583 2.33026C13.4583 3.15856 13.9605 3.5109 15.1146 4.42715C16.3743 5.43161 17.1938 5.98667 17.1938 6.8147C17.1938 7.82774 16.5154 8.29485 15.6608 8.29485C14.5067 8.29485 13.6079 7.31693 13.5111 5.8896L13 6.08347Z" fill="black"/>
<path d="M18.3926 1.17578C18.4454 1.95983 18.4454 2.2859 18.4454 2.82326V5.22851C18.4454 7.72171 19.3531 8.40011 20.8946 8.40011C22.4013 8.40011 23.1942 7.53669 23.1942 5.22851V2.82326C23.1942 2.2859 23.1942 1.95983 23.2471 1.17578H23.0269C23.0797 1.95983 23.0797 2.2859 23.0797 2.82326V5.22851C23.0797 7.43989 22.3485 8.23279 20.9651 8.23279C19.5732 8.23279 18.9476 7.35167 18.9476 5.22851V2.82326C18.9476 2.2859 18.9565 1.95983 19.0005 1.17578H18.3926Z" fill="black"/>
<path d="M29.4124 2.82326C29.4124 2.2859 29.4124 1.95983 29.4652 1.17578H29.2537C29.2979 1.95983 29.3068 2.2859 29.3068 2.82326V7.88903L24.9191 1.17578H24.3906C24.4434 1.95983 24.4434 2.2859 24.4434 2.82326V6.56762C24.4434 7.11383 24.4434 7.43989 24.3906 8.22394H24.6019C24.5579 7.43989 24.5491 7.11383 24.5491 6.56762V1.51069L28.9367 8.22394H29.4652C29.4124 7.43989 29.4124 7.11383 29.4124 6.56762V2.82326Z" fill="black"/>
<path d="M34.2409 6.52364C33.8531 5.4929 33.2541 5.08746 32.5583 4.94669C33.8003 4.84962 34.7871 4.39163 34.7871 3.06995C34.7871 1.55467 33.5008 1.17578 32.0032 1.17578H30.6992C30.752 1.95983 30.752 2.2859 30.752 2.82326V6.56762C30.752 7.11383 30.752 7.43989 30.6992 8.22394H31.3071C31.2631 7.43989 31.2543 7.11383 31.2543 6.56762V4.96412H31.6417C32.5934 4.96412 33.2541 5.23736 33.7475 6.59416C34.1703 7.7571 34.6374 8.22394 35.95 8.22394V8.11829C35.1043 8.11829 34.7077 7.77453 34.2409 6.52364ZM31.2543 4.84962V1.2817H32.0032C33.1219 1.2817 34.2497 1.63404 34.2497 3.06995C34.2497 4.49728 33.1219 4.84962 32.0032 4.84962H31.2543Z" fill="black"/>
<path d="M36.8984 1.17578C36.9513 1.95983 36.9513 2.2859 36.9513 2.82326V6.56762C36.9513 7.11383 36.9513 7.43989 36.8984 8.22394H37.5063C37.4623 7.43989 37.4535 7.11383 37.4535 6.56762V2.82326C37.4535 2.2859 37.4623 1.95983 37.5063 1.17578H36.8984Z" fill="black"/>
<path d="M38.4766 6.08347C38.9699 7.82774 39.9656 8.4005 41.1197 8.4005C42.1327 8.4005 42.9873 7.84544 42.9873 6.7002C42.9873 5.6783 42.2298 5.14952 40.8378 4.03941C39.8422 3.26421 39.252 2.92956 39.252 2.16294C39.252 1.52878 39.7277 1.10565 40.5206 1.10565C41.6396 1.10565 42.1064 1.95164 42.2121 2.74454L42.7232 2.5858C42.2209 1.56391 41.5248 1 40.5383 1C39.5778 1 38.9348 1.48454 38.9348 2.33026C38.9348 3.15856 39.4371 3.5109 40.5911 4.42715C41.8509 5.43161 42.6703 5.98667 42.6703 6.8147C42.6703 7.82774 41.9919 8.29485 41.1374 8.29485C39.9833 8.29485 39.0844 7.31693 38.9876 5.8896L38.4766 6.08347Z" fill="black"/>
<path d="M43.957 1.17578C44.0187 1.95983 44.0276 2.2859 44.0276 2.82326V6.56762C44.0276 7.11383 44.0187 7.43989 43.957 8.22394H47.7982L48.0009 7.86275C47.1375 8.07405 46.4856 8.10944 45.6396 8.10944H44.5298V4.52382H45.1551C45.6222 4.52382 46.0979 4.52382 46.9171 4.61178V4.32996C46.0979 4.41791 45.6222 4.41791 45.1551 4.41791H44.5298V1.2817H45.3578C45.7013 1.2817 46.6529 1.32567 47.4193 1.53697L47.7365 1.17578H43.957Z" fill="black"/>
</svg>
