<svg viewBox="0 0 872 274" xmlns="http://www.w3.org/2000/svg"><path d="M361.133 167.652c7.187 25.41 21.691 33.754 38.504 33.754 14.758 0 27.207-8.086 27.207-24.77 0-14.887-11.035-22.59-31.313-38.762-14.504-11.293-23.101-16.168-23.101-27.336 0-9.238 6.929-15.402 18.48-15.402 16.301 0 23.102 12.324 24.641 23.875l7.445-2.312c-7.316-14.887-17.457-23.102-31.828-23.102-13.992 0-23.359 7.059-23.359 19.379 0 12.066 7.316 17.199 24.129 30.547 18.351 14.633 30.289 22.719 30.289 34.781 0 14.758-9.883 21.563-22.332 21.563-16.813 0-29.907-14.247-31.317-35.039l-7.445 2.824zm78.539-71.488c.769 11.421.769 16.171.769 23.999v35.04c0 36.32 13.223 46.203 35.68 46.203 21.949 0 33.5-12.578 33.5-46.203v-35.04c0-7.828 0-12.578.77-24h-3.207c.769 11.422.769 16.172.769 24v35.04c0 32.214-10.652 43.765-30.805 43.765-20.277 0-29.39-12.836-29.39-43.765v-35.04c0-7.828.129-12.578.769-24h-8.855zm160.551 23.999c0-7.828 0-12.578.769-24h-3.082c.645 11.422.774 16.172.774 24v73.797l-63.918-97.797h-7.7c.77 11.422.77 16.172.77 24v54.547c0 7.957 0 12.707-.77 24.129h3.079c-.641-11.422-.77-16.172-.77-24.129v-73.668l63.918 97.797h7.699c-.769-11.422-.769-16.172-.769-24.129v-54.547zm70.324 53.907c-5.649-15.016-14.375-20.922-24.512-22.973 18.094-1.414 32.469-8.086 32.469-27.34 0-22.074-18.738-27.594-40.555-27.594h-18.996c.77 11.422.77 16.172.77 24v54.547c0 7.957 0 12.707-.77 24.129h8.856c-.641-11.422-.77-16.172-.77-24.129v-23.359h5.645c13.863 0 23.488 3.98 30.675 23.746 6.161 16.941 12.965 23.742 32.086 23.742V197.3c-12.32 0-18.097-5.008-24.898-23.23zm-43.508-24.387V97.706h10.91c16.297 0 32.727 5.133 32.727 26.051 0 20.793-16.43 25.926-32.727 25.926h-10.91zm82.26-53.52c.769 11.422.769 16.172.769 24v54.547c0 7.957 0 12.707-.769 24.129h8.855c-.64-11.422-.769-16.172-.769-24.129v-54.547c0-7.828.129-12.578.769-24h-8.855zm22.969 71.489c7.187 25.41 21.691 33.754 38.503 33.754 14.758 0 27.208-8.086 27.208-24.77 0-14.887-11.036-22.59-31.313-38.762-14.504-11.293-23.102-16.168-23.102-27.336 0-9.238 6.93-15.402 18.481-15.402 16.301 0 23.101 12.324 24.641 23.875l7.445-2.312c-7.317-14.887-17.457-23.102-31.828-23.102-13.992 0-23.36 7.059-23.36 19.379 0 12.066 7.317 17.199 24.129 30.547 18.352 14.633 30.289 22.719 30.289 34.781 0 14.758-9.882 21.563-22.332 21.563-16.812 0-29.906-14.247-31.316-35.039l-7.445 2.824zm79.824-71.488c.898 11.421 1.027 16.171 1.027 23.999v54.547c0 7.957-.129 12.707-1.027 24.129h55.957l2.953-5.261c-12.578 3.078-22.074 3.593-34.398 3.593h-16.168v-52.234h9.109c6.805 0 13.734 0 25.668 1.281v-4.105c-11.934 1.281-18.863 1.281-25.668 1.281h-9.109V97.706h12.062c5.004 0 18.867.641 30.031 3.719l4.621-5.261h-55.058z" /><path d="M70.547 10.594c0 .57-1.266.949-3.227 1.39.063-.187.063-.379.063-.57.761-.25 1.836-.566 3.164-.82z" fill="currentColor"/><path d="M311.945 225.555c3.926-24.371-.883-40.828-3.73-60.262-.949-6.457-1.711-13.293-1.836-20.824-.063-2.91.062-6.012.191-9.18.063-1.074.063-2.023.188-3.164 0-1.707-.063-3.418-.063-5l-5.254 4.746 4.747-24.496c-.696-22.09-1.833-41.523.382-65.574-.382-.254-.632-.383-.886-.887-.317-.508-.571-.95-.762-1.52-.567-1.14-.949-2.28-1.391-3.609a62.237 62.237 0 0 1-1.707-8.926c-.699-6.074-.824-13.355-.762-21.648.063-.82.063-1.707.063-2.594-1.391 0-2.91-.062-4.363-.062-6.836-.192-13.985-.446-21.516-.696-8.035-.316-16.262-.57-24.234-.824-12.024-.379-23.414 0-31.766 2.278-18.16 1.457-27.969 6.015-14.172 7.976-2.91 0-5.316 0-7.469-.125-14.804-.508-14.046-3.547-27.269-2.851a77.935 77.935 0 0 0-4.813.382l4.559-2.535 2.469-1.39c-.887-.192-1.836-.317-2.785-.442a8.678 8.678 0 0 0-1.266-.254c-16.453 3.922-48.281 8.61-75.555 4.746-2.91-.507-5.882-.824-8.922-1.14-3.48 0-7.273-.188-11.324-.633 12.149 2.027 3.606 2.344-2.09 3.418 0 .57-1.265.95-3.226 1.394.062-.191.062-.379.062-.57.762-.316 1.899-.633 3.164-.824-3.226-.063-27.968-1.582-31.003-1.39l-6.52.378c-2.277.192-4.555.317-6.77.508-8.796.695-15.945 1.52-23.093 1.39-.254 4.813-.887 8.547-2.723 11.586l2.023 9.747c.317 1.96.57 3.734.7 5.507.187 1.774.316 3.418.316 4.809.063 2.914-.191 5.762-.508 8.61-.633 5.57-1.773 11.078-2.215 16.964l2.532 1.645c1.328 7.722 1.074 22.027-1.203 28.8-.633 9.305.253 19.751 1.644 30.383 1.395 9.559 4.305 27.918 5.508 36.715-2.598 21.016 4.555 11.836 6.2 30.762-1.583 12.027 2.023 32.98-1.52 40.258-.442-16.774-7.211-19.051-5.82-36.711-2.278 6.773-2.47-29.817-5.759-14.055 4.493 26.649 2.215 57.918 3.797 86.656h4.934c7.277-.441 14.176-.949 20.125-1.898-.508.758-.254 1.328.633 1.898h84.597l17.086-3.226h36.766l2.34 3.226h103.457c3.418-.695 12.91-1.457 18.285-2.089 0-.063.066-.125.066-.25-.445-.067-.761-.383-1.078-.825 1.52.125 2.977.317 4.43.508 6.266-3.926 12.465-11.84 18.352-21.523-.887-8.61-2.278-16.52-4.243-23.293zM33.848 129.656c.062-.758 0-1.519 0-2.152.062.695.062 1.457.125 2.152h-.125z" fill="currentColor"/><path d="M294.484 270.938c0-.063.063-.126.063-.25-.445-.067-.762-.383-1.078-.825 1.519.125 2.976.317 4.429.508-.632.125-1.832.317-3.414.567zM33.91 129.656h-.125c.063-.758 0-1.519 0-2.152.063.695.063 1.457.125 2.152z" fill="currentColor"/><path d="M294.484 270.938c0-.063.063-.126.063-.25-.445-.067-.762-.383-1.078-.825 1.519.125 2.976.317 4.429.508a22.907 22.907 0 0 1-3.859 2.024c.129-.696.254-.95.445-1.457zM70.547 10.594c0 .57-1.266.949-3.227 1.39.063-.187.063-.379.063-.57.761-.25 1.836-.566 3.164-.82z" fill="currentColor"/><path fill-rule="evenodd" clip-rule="evenodd" d="M158.395 177.23c42.016 0 76.649 31.547 81.469 72.223H76.93c4.824-40.676 39.457-72.223 81.465-72.223zm129.863 47.204c.493 1.839-9.109 6.011-21.449 9.308-12.34 3.305-22.746 4.496-23.238 2.653-.496-1.833 9.109-6.004 21.449-9.309 12.344-3.305 22.746-4.492 23.238-2.652zm-259.722.004c.496-1.844 10.898-.653 23.238 2.644 12.344 3.309 21.945 7.48 21.45 9.32-.493 1.836-10.895.645-23.235-2.66-12.344-3.297-21.945-7.465-21.453-9.304zm13.433-32.395c.953-1.648 10.692 2.191 21.758 8.57 11.063 6.379 19.262 12.891 18.309 14.543-.953 1.645-10.696-2.187-21.762-8.57-11.063-6.379-19.262-12.891-18.305-14.543zm232.86 0c.953 1.648-7.243 8.164-18.309 14.543-11.062 6.383-20.805 10.215-21.762 8.566-.949-1.652 7.246-8.16 18.313-14.539 11.062-6.383 20.801-10.222 21.758-8.57zm-21.368-27.813c1.348 1.344-4.882 9.754-13.914 18.778-9.031 9.023-17.449 15.25-18.8 13.902-1.348-1.348 4.882-9.754 13.918-18.781 9.031-9.024 17.449-15.25 18.796-13.899zm-27.843-21.347c1.652.953-2.188 10.687-8.574 21.742-6.391 11.051-12.907 19.238-14.559 18.285-1.652-.949 2.187-10.68 8.578-21.734 6.387-11.055 12.902-19.246 14.555-18.293zm-32.426-13.414c1.844.492.656 10.886-2.648 23.215-3.309 12.328-7.485 21.921-9.329 21.429-1.836-.496-.652-10.886 2.657-23.215 3.304-12.328 7.48-21.921 9.32-21.429zM63.332 164.23c1.348-1.347 9.766 4.875 18.797 13.899 9.036 9.027 15.266 17.437 13.918 18.781-1.347 1.348-9.765-4.879-18.8-13.902-9.032-9.024-15.262-17.434-13.914-18.778zm27.844-21.343c1.653-.953 8.168 7.234 14.555 18.289 6.391 11.054 10.23 20.785 8.578 21.734-1.652.953-8.168-7.234-14.555-18.285-6.39-11.055-10.23-20.789-8.578-21.738zm32.422-13.418c1.844-.492 6.02 9.101 9.324 21.429 3.309 12.329 4.493 22.719 2.653 23.215-1.84.492-6.016-9.101-9.324-21.429-3.305-12.329-4.493-22.723-2.653-23.215zm34.797-4.578c1.91 0 3.457 10.347 3.457 23.109 0 12.766-1.547 23.113-3.457 23.113-1.902 0-3.449-10.347-3.449-23.113 0-12.762 1.547-23.109 3.449-23.109z" fill="#FFEB4F"/><path d="M358.953 264.696v-27.11h9.359l4.782 19.781 4.781-19.781h9.375v27.11h-5.5v-20.969h-.594l-5.312 19.765h-5.5l-5.297-19.765h-.594v20.969h-5.5zm35.109 0l6.11-27.11h10.437l6.094 27.11h-5.5l-1.078-4.907h-9.484l-1.079 4.907h-5.5zm10.376-22.563l-2.75 12.875h7.406l-2.75-12.875h-1.906zm19.093 22.563v-27.11h9.281l6.547 22.328h.391v-22.328h5.5v27.11h-9.047l-6.781-22.329h-.391v22.329h-5.5zm28.533 0l6.11-27.11h10.437l6.094 27.11h-5.5l-1.078-4.907h-9.484l-1.079 4.907h-5.5zm10.375-22.563l-2.75 12.875h7.407l-2.75-12.875h-1.907zm30.375 12.844v-4.797h7.891v14.078c-3.805.613-6.887.922-9.25.922-4.23 0-7.137-1.129-8.719-3.391-1.574-2.258-2.359-5.847-2.359-10.765 0-4.914.82-8.461 2.469-10.641 1.644-2.176 4.445-3.266 8.406-3.266 2.469 0 5.141.278 8.016.829l1.437.281-.156 4.265c-3.199-.343-5.813-.515-7.844-.515-2.031 0-3.461.242-4.281.719-.824.48-1.43 1.367-1.813 2.656-.386 1.281-.578 3.484-.578 6.609s.383 5.313 1.156 6.563c.77 1.242 2.364 1.859 4.782 1.859l3.312-.156v-5.25h-2.469zm16.264 9.719v-27.11h17.531v4.781h-12.031v6.344h9.641v4.703h-9.641v6.5h12.031v4.782h-17.531zm25.274 0v-27.11h9.359l4.781 19.781 4.781-19.781h9.375v27.11h-5.5v-20.969h-.593l-5.313 19.765h-5.5l-5.297-19.765h-.593v20.969h-5.5zm37.392 0v-27.11h17.531v4.781h-12.031v6.344h9.641v4.703h-9.641v6.5h12.031v4.782h-17.531zm25.274 0v-27.11h9.281l6.547 22.328h.39v-22.328h5.5v27.11h-9.047l-6.781-22.329h-.39v22.329h-5.5zm28.377-22.235v-4.875h19.937v4.875h-7.187v22.235h-5.5v-22.235h-7.25zm47.677 22.235h-9.125v-27.11h9.125c2.332 0 4.254.25 5.766.75 1.519.492 2.695 1.305 3.531 2.438.844 1.125 1.422 2.453 1.735 3.984.32 1.523.484 3.508.484 5.953 0 2.438-.149 4.465-.438 6.078-.293 1.606-.843 3.039-1.656 4.297-.812 1.262-1.992 2.18-3.531 2.75-1.531.574-3.496.86-5.891.86zm5.782-10.766c.05-.844.078-2.016.078-3.516 0-1.508-.055-2.711-.157-3.609a6.688 6.688 0 0 0-.765-2.469c-.399-.75-.985-1.265-1.766-1.547-.781-.281-1.84-.422-3.172-.422h-3.625v17.547h3.625c1.989 0 3.438-.504 4.344-1.515.77-.821 1.25-2.313 1.438-4.469zm13.714 10.766v-27.11H710.1v4.781h-12.032v6.344h9.641v4.703h-9.641v6.5H710.1v4.782h-17.532zm54.405-.438c-2.813.613-5.352.922-7.61.922-2.261 0-4.07-.281-5.422-.844-1.355-.562-2.418-1.453-3.187-2.672-.774-1.218-1.305-2.648-1.594-4.297-.293-1.656-.437-3.726-.437-6.218 0-5.239.734-8.883 2.203-10.938 1.476-2.062 4.195-3.094 8.156-3.094 2.289 0 4.938.36 7.938 1.079l-.157 4.375c-2.636-.395-4.824-.594-6.562-.594-1.742 0-2.985.234-3.735.703-.742.461-1.293 1.34-1.656 2.641-.355 1.304-.531 3.523-.531 6.656 0 3.137.363 5.308 1.094 6.515.726 1.211 2.187 1.813 4.375 1.813 2.195 0 4.535-.18 7.015-.547l.11 4.5zm5.382.438l6.11-27.11h10.437l6.094 27.11h-5.5l-1.078-4.907h-9.484l-1.079 4.907h-5.5zm10.375-22.563l-2.75 12.875h7.407l-2.75-12.875h-1.907zm17.782.234v-4.781h17.937v4.781l-11.328 16.829v.718h11.328v4.782h-17.937v-4.75l11.312-16.86v-.719h-11.312zm52.34-4.781h5.765l-6.297 27.11h-10.156l-6.297-27.11h5.781l4.704 22.328h1.796l4.704-22.328zm21.679 27.11h-9.125v-27.11h9.125c2.332 0 4.254.25 5.766.75 1.519.492 2.695 1.305 3.531 2.438.844 1.125 1.422 2.453 1.734 3.984.321 1.523.485 3.508.485 5.953 0 2.438-.149 4.465-.438 6.078-.293 1.606-.843 3.039-1.656 4.297-.812 1.262-1.992 2.18-3.531 2.75-1.531.574-3.496.86-5.891.86zm5.781-10.766a61.52 61.52 0 0 0 .079-3.516c0-1.508-.055-2.711-.157-3.609a6.688 6.688 0 0 0-.765-2.469c-.399-.75-.985-1.265-1.766-1.547-.781-.281-1.84-.422-3.172-.422h-3.625v17.547h3.625c1.989 0 3.438-.504 4.344-1.515.77-.821 1.25-2.313 1.437-4.469z" fill="currentColor"/></svg>