<svg width="17" height="18" viewBox="0 0 17 18" fill="none" xmlns="http://www.w3.org/2000/svg">
<path d="M14.616 17.484H2.35196C1.7286 17.4828 1.1311 17.2346 0.69024 16.7938C0.24946 16.3529 0.00126 15.7554 0 15.1321V2.86807C0.00125 2.24471 0.24946 1.64721 0.69024 1.20635C1.1311 0.765573 1.7286 0.517373 2.35196 0.516113H14.616C15.2393 0.517363 15.8368 0.765573 16.2777 1.20635C16.7185 1.64721 16.9667 2.24471 16.9679 2.86807V15.1321C16.9667 15.7554 16.7185 16.3529 16.2777 16.7938C15.8368 17.2346 15.2393 17.4828 14.616 17.484ZM2.35196 1.47603C1.98282 1.47603 1.62868 1.62267 1.36758 1.88369C1.10656 2.14479 0.959922 2.49885 0.959922 2.86799V15.132C0.959922 15.5011 1.10656 15.8552 1.36758 16.1163C1.62868 16.3773 1.98274 16.524 2.35188 16.524H14.6159C14.985 16.524 15.3391 16.3773 15.6002 16.1163C15.8612 15.8552 16.0078 15.5011 16.0078 15.132V2.86799C16.0078 2.49885 15.8612 2.14479 15.6002 1.88369C15.3391 1.62267 14.985 1.47603 14.6159 1.47603H2.35196Z" fill="#6010FF"/>
<path d="M5.92318 17.4881C5.79584 17.4881 5.6738 17.4375 5.58372 17.3475C5.49372 17.2575 5.44318 17.1354 5.44318 17.0081V0.990476C5.44318 0.818992 5.53466 0.660556 5.68318 0.574776C5.83169 0.489072 6.01466 0.489072 6.16318 0.574776C6.31169 0.660558 6.40318 0.818996 6.40318 0.990476V17.0081C6.40318 17.1353 6.35263 17.2575 6.26255 17.3475C6.17255 17.4375 6.05046 17.4881 5.92318 17.4881Z" fill="#6010FF"/>
</svg>
